Coordinates
version=1
nRows=43
nColumns=12
inDegrees=yes

Units are S.I. units (second, meters, Newtons, ...)
Angles are in degrees

endheader
time	SC_y	SC_z	SC_x	AC_y	AC_z	AC_x	GH_y	GH_z	GH_yy	EL_x	PS_y
       0.0              -47.84          12.95           19.7          36.31          -7.47          15.03          39.19           17.9         -33.84          97.48          43.11
   0.01046              -47.84          12.95          19.71          36.31          -7.47          15.03          39.17          17.91         -33.84          97.47          43.13
   0.02091              -47.84          12.96          19.72          36.31         -7.469          15.03          39.15          17.93         -33.84          97.45          43.14
   0.03137              -47.84          12.96          19.73          36.31         -7.468          15.03          39.13          17.94         -33.84          97.44          43.16
   0.04182              -47.84          12.96          19.74          36.32         -7.467          15.03          39.11          17.95         -33.84          97.42          43.18
   0.05228              -47.84          12.96          19.75          36.32         -7.467          15.02          39.09          17.96         -33.84          97.41           43.2
   0.06273              -47.84          12.96          19.77          36.32         -7.466          15.02          39.06          17.98         -33.84          97.39          43.22
   0.07319              -47.84          12.96          19.78          36.33         -7.465          15.02          39.03          17.99         -33.84          97.37          43.25
   0.08364              -47.84          12.96          19.79          36.33         -7.464          15.02           39.0          18.01         -33.84          97.35          43.27
    0.0941              -47.84          12.96          19.81          36.33         -7.463          15.02          38.97          18.02         -33.84          97.33           43.3
    0.1046              -47.83          12.96          19.83          36.34         -7.461          15.02          38.94          18.04         -33.83           97.3          43.33
     0.115              -47.83          12.97          19.84          36.34          -7.46          15.02           38.9          18.06         -33.83          97.28          43.36
    0.1255              -47.83          12.97          19.86          36.34         -7.459          15.02          38.86          18.08         -33.83          97.25          43.39
    0.1359              -47.83          12.97          19.88          36.35         -7.457          15.02          38.82          18.11         -33.83          97.22          43.43
    0.1464              -47.83          12.97          19.91          36.35         -7.456          15.02          38.78          18.13         -33.83          97.19          43.46
    0.1568              -47.82          12.97          19.93          36.36         -7.454          15.02          38.73          18.16         -33.83          97.15          43.51
    0.1673              -47.82          12.97          19.96          36.37         -7.452          15.01          38.68          18.19         -33.82          97.11          43.55
    0.1777              -47.82          12.98          19.99          36.37          -7.45          15.01          38.62          18.22         -33.82          97.07           43.6
    0.1882              -47.82          12.98          20.02          36.38         -7.448          15.01          38.55          18.25         -33.82          97.03          43.66
    0.1987              -47.81          12.98          20.05          36.39         -7.445          15.01          38.48          18.29         -33.82          96.98          43.72
    0.2091              -47.81          12.98          20.09           36.4         -7.442          15.01          38.41          18.33         -33.82          96.92          43.78
    0.2196              -47.81          12.99          20.13          36.41         -7.439          15.01          38.32          18.38         -33.81          96.86          43.85
      0.23               -47.8          12.99          20.18          36.42         -7.436           15.0          38.23          18.43         -33.81           96.8          43.93
    0.2405               -47.8           13.0          20.23          36.43         -7.432           15.0          38.13          18.49         -33.81          96.72          44.02
    0.2509              -47.79           13.0          20.29          36.44         -7.428           15.0          38.01          18.55          -33.8          96.64          44.12
    0.2614              -47.79          13.01          20.35          36.46         -7.424          14.99          37.89          18.62          -33.8          96.55          44.23
    0.2718              -47.78          13.01          20.42          36.47         -7.419          14.99          37.74           18.7         -33.79          96.45          44.35
    0.2823              -47.77          13.02           20.5          36.49         -7.413          14.99          37.58          18.78         -33.79          96.33          44.49
    0.2928              -47.77          13.02          20.59          36.51         -7.406          14.98           37.4          18.88         -33.78           96.2          44.64
    0.3032              -47.76          13.03          20.69          36.54         -7.399          14.98          37.19           19.0         -33.77          96.05          44.82
    0.3137              -47.75          13.04          20.81          36.56         -7.391          14.97          36.96          19.12         -33.76          95.89          45.02
    0.3241              -47.73          13.05          20.95          36.59         -7.381          14.96          36.69          19.27         -33.75          95.69          45.25
    0.3346              -47.72          13.06           21.1          36.63          -7.37          14.96          36.38          19.44         -33.74          95.47          45.52
     0.345               -47.7          13.08          21.28          36.67         -7.357          14.95          36.01          19.64         -33.73          95.21          45.83
    0.3555              -47.69           13.1          21.49          36.72         -7.342          14.94          35.59          19.87         -33.71          94.91          46.19
    0.3659              -47.66          13.12          21.74          36.78         -7.324          14.92          35.09          20.15          -33.7          94.55          46.62
    0.3764              -47.64          13.14          22.04          36.84         -7.303          14.91           34.5          20.47         -33.67          94.13          47.13
    0.3869              -47.61          13.17          22.39          36.92         -7.277          14.89          33.78          20.86         -33.65          93.62          47.74
    0.3973              -47.57           13.2          22.82          37.02         -7.246          14.87          32.92          21.33         -33.62           93.0          48.48
    0.4078              -47.52          13.24          23.34          37.14         -7.209          14.84          31.87          21.91         -33.58          92.25          49.38
    0.4182              -47.47          13.29          23.99          37.29         -7.162          14.81          30.57          22.62         -33.53          91.32          50.49
    0.4287              -47.39          13.36           24.8          37.48         -7.104          14.76          28.95           23.5         -33.47          90.16          51.88
    0.4391               -47.3          13.44          25.81          37.71         -7.032          14.71          26.91          24.62          -33.4           88.7          53.62
